<svg id="visual" viewBox="0 0 960 540" width="960" height="540" xmlns="http://www.w3.org/2000/svg" xmlns:xlink="http://www.w3.org/1999/xlink" version="1.1"><rect x="0" y="0" width="960" height="540" fill="#c4fa6f"></rect><defs><linearGradient id="grad1_0" x1="43.8%" y1="0%" x2="100%" y2="100%"><stop offset="14.444444444444446%" stop-color="#c4fa6f" stop-opacity="1"></stop><stop offset="85.55555555555554%" stop-color="#c4fa6f" stop-opacity="1"></stop></linearGradient></defs><defs><linearGradient id="grad2_0" x1="0%" y1="0%" x2="56.3%" y2="100%"><stop offset="14.444444444444446%" stop-color="#c4fa6f" stop-opacity="1"></stop><stop offset="85.55555555555554%" stop-color="#c4fa6f" stop-opacity="1"></stop></linearGradient></defs><g transform="translate(960, 0)"><path d="M0 189C-10 173.7 -20.1 158.3 -30.6 154C-41.2 149.6 -52.3 156.2 -66.6 160.8C-80.9 165.3 -98.5 167.7 -105 157.1C-111.5 146.6 -107 123 -111 111C-115.1 99 -127.8 98.7 -141.3 94.4C-154.9 90.2 -169.4 82.2 -170.9 70.8C-172.4 59.4 -161 44.6 -161.8 32.2C-162.7 19.8 -175.8 9.9 -189 0L0 0Z" fill="#182cd4"></path></g><g transform="translate(0, 540)"><path d="M0 -189C13.3 -190.7 26.7 -192.3 36.7 -184.4C46.7 -176.5 53.3 -159 62.8 -151.5C72.2 -144 84.4 -146.6 97.2 -145.5C110.1 -144.4 123.6 -139.7 128 -128C132.3 -116.2 127.5 -97.4 126.4 -84.4C125.3 -71.5 127.8 -64.4 140.4 -58.2C153 -51.9 175.6 -46.4 185.4 -36.9C195.1 -27.3 192.1 -13.7 189 0L0 0Z" fill="#182cd4"></path></g></svg>