<?xml version="1.0" encoding="utf-8"?>
<svg id="visual" viewBox="0 0 960 540" width="960" height="540" version="1.1" xmlns="http://www.w3.org/2000/svg">
  <rect width="960" height="540" fill="#c4fa6f"/>
  <g transform="matrix(1, 0, 0, 1, -9.544614, 22.270765)">
    <g transform="translate(555 181)">
      <path d="M45.3 -47.2C64.1 -38.3 88.4 -29.1 94.6 -13.7C100.8 1.6 89 23.1 76.3 43.3C63.7 63.4 50.3 82.3 33.8 84.8C17.3 87.3 -2.2 73.4 -26.3 67C-50.5 60.5 -79.3 61.4 -86.2 49.6C-93.2 37.9 -78.3 13.3 -75.6 -15.3C-72.9 -43.9 -82.2 -76.5 -71.6 -86.8C-61.1 -97.2 -30.5 -85.2 -8.6 -74.9C13.3 -64.6 26.6 -56 45.3 -47.2Z" fill="#182cd4"/>
    </g>
    <g transform="translate(158 172)">
      <path d="M33.7 -37.1C46.6 -29.4 61.9 -21.5 66.4 -9.7C70.8 2.1 64.5 17.9 56 32C47.4 46.2 36.7 58.8 23.8 62.1C10.8 65.4 -4.3 59.5 -15 51.2C-25.6 43 -31.8 32.4 -40 21.5C-48.3 10.5 -58.7 -0.8 -60.9 -14.6C-63.1 -28.4 -57.1 -44.7 -45.6 -52.6C-34.1 -60.6 -17 -60.2 -3.3 -56.3C10.4 -52.3 20.8 -44.8 33.7 -37.1Z" fill="#182cd4"/>
    </g>
    <g transform="translate(812 357)">
      <path d="M53.1 -66.5C65.5 -52.9 69.8 -33 78 -10.2C86.2 12.5 98.3 38.1 89.6 50.5C81 62.8 51.6 61.9 27.7 66.3C3.9 70.7 -14.5 80.4 -31.4 77.9C-48.3 75.3 -63.8 60.6 -75.6 42.5C-87.4 24.5 -95.4 3.1 -93.8 -18.3C-92.1 -39.7 -80.6 -61.1 -63.4 -73.7C-46.1 -86.4 -23.1 -90.3 -1.3 -88.7C20.4 -87.1 40.8 -80 53.1 -66.5Z" fill="#182cd4"/>
    </g>
  </g>
  <text style="font-size: 36; font-family: Roboto; white-space: pre;" y="238.271" x="-0.069"> </text>
  <text style="white-space: pre; fill: rgb(51, 51, 51); font-family: Arial, sans-serif; font-size: 44.5px;" x="89.741" y="-65.788"> </text>
</svg>