<svg id="visual" viewBox="0 0 960 540" width="960" height="540" xmlns="http://www.w3.org/2000/svg" xmlns:xlink="http://www.w3.org/1999/xlink" version="1.1"><rect x="0" y="0" width="960" height="540" fill="#c4fa6f"></rect><defs><linearGradient id="grad1_0" x1="43.8%" y1="100%" x2="100%" y2="0%"><stop offset="14.444444444444446%" stop-color="#c4fa6f" stop-opacity="1"></stop><stop offset="85.55555555555554%" stop-color="#c4fa6f" stop-opacity="1"></stop></linearGradient></defs><defs><linearGradient id="grad2_0" x1="0%" y1="100%" x2="56.3%" y2="0%"><stop offset="14.444444444444446%" stop-color="#c4fa6f" stop-opacity="1"></stop><stop offset="85.55555555555554%" stop-color="#c4fa6f" stop-opacity="1"></stop></linearGradient></defs><g transform="translate(960, 540)"><path d="M-189 0C-173.7 -10 -158.3 -20.1 -154 -30.6C-149.6 -41.2 -156.2 -52.3 -160.8 -66.6C-165.3 -80.9 -167.7 -98.5 -157.1 -105C-146.6 -111.5 -123 -107 -111 -111C-99 -115.1 -98.7 -127.8 -94.4 -141.3C-90.2 -154.9 -82.2 -169.4 -70.8 -170.9C-59.4 -172.4 -44.6 -161 -32.2 -161.8C-19.8 -162.7 -9.9 -175.8 0 -189L0 0Z" fill="#182cd4"></path></g><g transform="translate(0, 0)"><path d="M189 0C190.7 13.3 192.3 26.7 184.4 36.7C176.5 46.7 159 53.3 151.5 62.8C144 72.2 146.6 84.4 145.5 97.2C144.4 110.1 139.7 123.6 128 128C116.2 132.3 97.4 127.5 84.4 126.4C71.5 125.3 64.4 127.8 58.2 140.4C51.9 153 46.4 175.6 36.9 185.4C27.3 195.1 13.7 192.1 0 189L0 0Z" fill="#182cd4"></path></g></svg>