<svg id="e3NJu2SdQ8g1" xmlns="http://www.w3.org/2000/svg" xmlns:xlink="http://www.w3.org/1999/xlink" viewBox="0 0 900 600" shape-rendering="geometricPrecision" text-rendering="geometricPrecision"><rect width="900" height="600" rx="0" ry="0" fill="#c4fa6f"/><path d="M0,89l21.5,8.5C43,106,86,123,128.8,132.3c42.9,9.4,85.5,11,128.4,3.7c42.8-7.3,85.8-23.7,128.6-27.2c42.9-3.5,85.5,5.9,128.4,7.2c42.8,1.3,85.8-5.3,128.6-4c42.9,1.3,85.5,10.7,128.4,13.2c42.8,2.5,85.8-1.9,107.3-4L900,119v-119h-21.5C857,0,814,0,771.2,0c-42.9,0-85.5,0-128.4,0C600,0,557,0,514.2,0c-42.9,0-85.5,0-128.4,0C343,0,300,0,257.2,0c-42.9,0-85.5,0-128.4,0C86,0,43,0,21.5,0L0,0Z" fill="#6369e7"/><path d="M0,89l21.5,8.5C43,106,86,123,128.8,132.3c42.9,9.4,85.5,11,128.4,3.7c42.8-7.3,85.8-23.7,128.6-27.2c42.9-3.5,85.5,5.9,128.4,7.2c42.8,1.3,85.8-5.3,128.6-4c42.9,1.3,85.5,10.7,128.4,13.2c42.8,2.5,85.8-1.9,107.3-4L900,119v-119h-21.5C857,0,814,0,771.2,0c-42.9,0-85.5,0-128.4,0C600,0,557,0,514.2,0c-42.9,0-85.5,0-128.4,0C343,0,300,0,257.2,0c-42.9,0-85.5,0-128.4,0C86,0,43,0,21.5,0L0,0Z" transform="matrix(-.999988 0.004976-.004976-.999988 900.899076 602.17197)" fill="#6369e7"/><path d="M0,109l21.5,2.2c21.5,2.1,64.5,6.5,107.3,3c42.9-3.5,85.5-14.9,128.4-15.7c42.8-.8,85.8,8.8,128.6,8.8c42.9,0,85.5-9.6,128.4-16.6c42.8-7,85.8-11.4,128.6-7.5C685.7,87,728.3,99,771.2,102.3c42.8,3.4,85.8-2,107.3-4.6L900,95v-95h-21.5C857,0,814,0,771.2,0c-42.9,0-85.5,0-128.4,0C600,0,557,0,514.2,0c-42.9,0-85.5,0-128.4,0C343,0,300,0,257.2,0c-42.9,0-85.5,0-128.4,0C86,0,43,0,21.5,0L0,0Z" fill="#444cde"/><path d="M0,109l21.5,2.2c21.5,2.1,64.5,6.5,107.3,3c42.9-3.5,85.5-14.9,128.4-15.7c42.8-.8,85.8,8.8,128.6,8.8c42.9,0,85.5-9.6,128.4-16.6c42.8-7,85.8-11.4,128.6-7.5C685.7,87,728.3,99,771.2,102.3c42.8,3.4,85.8-2,107.3-4.6L900,95v-95h-21.5C857,0,814,0,771.2,0c-42.9,0-85.5,0-128.4,0C600,0,557,0,514.2,0c-42.9,0-85.5,0-128.4,0C343,0,300,0,257.2,0c-42.9,0-85.5,0-128.4,0C86,0,43,0,21.5,0L0,0Z" fill="#444cde"/><path d="M0,109l21.5,2.2c21.5,2.1,64.5,6.5,107.3,3c42.9-3.5,85.5-14.9,128.4-15.7c42.8-.8,85.8,8.8,128.6,8.8c42.9,0,85.5-9.6,128.4-16.6c42.8-7,85.8-11.4,128.6-7.5C685.7,87,728.3,99,771.2,102.3c42.8,3.4,85.8-2,107.3-4.6L900,95v-95h-21.5C857,0,814,0,771.2,0c-42.9,0-85.5,0-128.4,0C600,0,557,0,514.2,0c-42.9,0-85.5,0-128.4,0C343,0,300,0,257.2,0c-42.9,0-85.5,0-128.4,0C86,0,43,0,21.5,0L0,0Z" transform="matrix(-.997329-.000823 0.000585-.708553 898.505964 602.912713)" fill="#444cde"/><path d="M0,55l21.5,5.7C43,66.3,86,77.7,128.8,81.2c42.9,3.5,85.5-.9,128.4-6.2C300,69.7,343,63.3,385.8,62.3c42.9-1,85.5,3.4,128.4,4.7c42.8,1.3,85.8-.3,128.6.2c42.9.5,85.5,3.1,128.4,8C814,80,857,87,878.5,90.5L900,94v-94h-21.5C857,0,814,0,771.2,0c-42.9,0-85.5,0-128.4,0C600,0,557,0,514.2,0c-42.9,0-85.5,0-128.4,0C343,0,300,0,257.2,0c-42.9,0-85.5,0-128.4,0C86,0,43,0,21.5,0L0,0Z" fill="#182cd4"/><path d="M0,55l21.5,5.7C43,66.3,86,77.7,128.8,81.2c42.9,3.5,85.5-.9,128.4-6.2C300,69.7,343,63.3,385.8,62.3c42.9-1,85.5,3.4,128.4,4.7c42.8,1.3,85.8-.3,128.6.2c42.9.5,85.5,3.1,128.4,8C814,80,857,87,878.5,90.5L900,94v-94h-21.5C857,0,814,0,771.2,0c-42.9,0-85.5,0-128.4,0C600,0,557,0,514.2,0c-42.9,0-85.5,0-128.4,0C343,0,300,0,257.2,0c-42.9,0-85.5,0-128.4,0C86,0,43,0,21.5,0L0,0Z" fill="#182cd4"/><path d="M0,51l21.5-1C43,49,86,47,128.8,46c42.9-1,85.5-1,128.4-2.2C300,42.7,343,40.3,385.8,39c42.9-1.3,85.5-1.7,128.4,1c42.8,2.7,85.8,8.3,128.6,9.8c42.9,1.5,85.5-1.1,128.4-2c42.8-.8,85.8.2,107.3.7L900,49v-49h-21.5C857,0,814,0,771.2,0c-42.9,0-85.5,0-128.4,0C600,0,557,0,514.2,0c-42.9,0-85.5,0-128.4,0C343,0,300,0,257.2,0c-42.9,0-85.5,0-128.4,0C86,0,43,0,21.5,0L0,0Z" fill="#0928b8"/><path d="M0,51l21.5-1C43,49,86,47,128.8,46c42.9-1,85.5-1,128.4-2.2C300,42.7,343,40.3,385.8,39c42.9-1.3,85.5-1.7,128.4,1c42.8,2.7,85.8,8.3,128.6,9.8c42.9,1.5,85.5-1.1,128.4-2c42.8-.8,85.8.2,107.3.7L900,49v-49h-21.5C857,0,814,0,771.2,0c-42.9,0-85.5,0-128.4,0C600,0,557,0,514.2,0c-42.9,0-85.5,0-128.4,0C343,0,300,0,257.2,0c-42.9,0-85.5,0-128.4,0C86,0,43,0,21.5,0L0,0Z" fill="#0928b8"/><path d="M0,51l21.5-1C43,49,86,47,128.8,46c42.9-1,85.5-1,128.4-2.2C300,42.7,343,40.3,385.8,39c42.9-1.3,85.5-1.7,128.4,1c42.8,2.7,85.8,8.3,128.6,9.8c42.9,1.5,85.5-1.1,128.4-2c42.8-.8,85.8.2,107.3.7L900,49v-49h-21.5C857,0,814,0,771.2,0c-42.9,0-85.5,0-128.4,0C600,0,557,0,514.2,0c-42.9,0-85.5,0-128.4,0C343,0,300,0,257.2,0c-42.9,0-85.5,0-128.4,0C86,0,43,0,21.5,0L0,0Z" transform="matrix(-.99997-.007734 0.007734-.99997 899.789318 606.498889)" fill="#0928b8"/><path d="M0,33l21.5,1C43,35,86,37,128.8,35.3c42.9-1.6,85.5-7,128.4-8.5c42.8-1.5,85.8.9,128.6,1.7c42.9.8,85.5.2,128.4-2c42.8-2.2,85.8-5.8,128.6-5.2c42.9.7,85.5,5.7,128.4,10.2C814,36,857,40,878.5,42L900,44v-44h-21.5C857,0,814,0,771.2,0c-42.9,0-85.5,0-128.4,0C600,0,557,0,514.2,0c-42.9,0-85.5,0-128.4,0C343,0,300,0,257.2,0c-42.9,0-85.5,0-128.4,0C86,0,43,0,21.5,0L0,0Z" fill="#00249d"/></svg>
