<svg id="visual" viewBox="0 0 900 600" width="900" height="600" xmlns="http://www.w3.org/2000/svg" xmlns:xlink="http://www.w3.org/1999/xlink" version="1.1"><rect x="0" y="0" width="900" height="600" fill="#c4fa6f"></rect><path d="M0 89L21.5 97.5C43 106 86 123 128.8 132.3C171.7 141.7 214.3 143.3 257.2 136C300 128.7 343 112.3 385.8 108.8C428.7 105.3 471.3 114.7 514.2 116C557 117.3 600 110.7 642.8 112C685.7 113.3 728.3 122.7 771.2 125.2C814 127.7 857 123.3 878.5 121.2L900 119L900 0L878.5 0C857 0 814 0 771.2 0C728.3 0 685.7 0 642.8 0C600 0 557 0 514.2 0C471.3 0 428.7 0 385.8 0C343 0 300 0 257.2 0C214.3 0 171.7 0 128.8 0C86 0 43 0 21.5 0L0 0Z" fill="#6369e7"></path><path d="M0 109L21.5 111.2C43 113.3 86 117.7 128.8 114.2C171.7 110.7 214.3 99.3 257.2 98.5C300 97.7 343 107.3 385.8 107.3C428.7 107.3 471.3 97.7 514.2 90.7C557 83.7 600 79.3 642.8 83.2C685.7 87 728.3 99 771.2 102.3C814 105.7 857 100.3 878.5 97.7L900 95L900 0L878.5 0C857 0 814 0 771.2 0C728.3 0 685.7 0 642.8 0C600 0 557 0 514.2 0C471.3 0 428.7 0 385.8 0C343 0 300 0 257.2 0C214.3 0 171.7 0 128.8 0C86 0 43 0 21.5 0L0 0Z" fill="#444cde"></path><path d="M0 55L21.5 60.7C43 66.3 86 77.7 128.8 81.2C171.7 84.7 214.3 80.3 257.2 75C300 69.7 343 63.3 385.8 62.3C428.7 61.3 471.3 65.7 514.2 67C557 68.3 600 66.7 642.8 67.2C685.7 67.7 728.3 70.3 771.2 75.2C814 80 857 87 878.5 90.5L900 94L900 0L878.5 0C857 0 814 0 771.2 0C728.3 0 685.7 0 642.8 0C600 0 557 0 514.2 0C471.3 0 428.7 0 385.8 0C343 0 300 0 257.2 0C214.3 0 171.7 0 128.8 0C86 0 43 0 21.5 0L0 0Z" fill="#182cd4"></path><path d="M0 51L21.5 50C43 49 86 47 128.8 46C171.7 45 214.3 45 257.2 43.8C300 42.7 343 40.3 385.8 39C428.7 37.7 471.3 37.3 514.2 40C557 42.7 600 48.3 642.8 49.8C685.7 51.3 728.3 48.7 771.2 47.8C814 47 857 48 878.5 48.5L900 49L900 0L878.5 0C857 0 814 0 771.2 0C728.3 0 685.7 0 642.8 0C600 0 557 0 514.2 0C471.3 0 428.7 0 385.8 0C343 0 300 0 257.2 0C214.3 0 171.7 0 128.8 0C86 0 43 0 21.5 0L0 0Z" fill="#0928b8"></path><path d="M0 33L21.5 34C43 35 86 37 128.8 35.3C171.7 33.7 214.3 28.3 257.2 26.8C300 25.3 343 27.7 385.8 28.5C428.7 29.3 471.3 28.7 514.2 26.5C557 24.3 600 20.7 642.8 21.3C685.7 22 728.3 27 771.2 31.5C814 36 857 40 878.5 42L900 44L900 0L878.5 0C857 0 814 0 771.2 0C728.3 0 685.7 0 642.8 0C600 0 557 0 514.2 0C471.3 0 428.7 0 385.8 0C343 0 300 0 257.2 0C214.3 0 171.7 0 128.8 0C86 0 43 0 21.5 0L0 0Z" fill="#00249d"></path></svg>