<svg id="visual" viewBox="0 0 900 600" width="900" height="600" xmlns="http://www.w3.org/2000/svg" xmlns:xlink="http://www.w3.org/1999/xlink" version="1.1"><rect x="0" y="0" width="900" height="600" fill="#c4fa6f"></rect><path d="M0 328L21.5 330.8C43 333.7 86 339.3 128.8 332.7C171.7 326 214.3 307 257.2 302.3C300 297.7 343 307.3 385.8 322.3C428.7 337.3 471.3 357.7 514.2 352.8C557 348 600 318 642.8 298.7C685.7 279.3 728.3 270.7 771.2 282.8C814 295 857 328 878.5 344.5L900 361L900 601L878.5 601C857 601 814 601 771.2 601C728.3 601 685.7 601 642.8 601C600 601 557 601 514.2 601C471.3 601 428.7 601 385.8 601C343 601 300 601 257.2 601C214.3 601 171.7 601 128.8 601C86 601 43 601 21.5 601L0 601Z" fill="#6369e7"></path><path d="M0 391L21.5 389.8C43 388.7 86 386.3 128.8 385.8C171.7 385.3 214.3 386.7 257.2 393.3C300 400 343 412 385.8 401C428.7 390 471.3 356 514.2 351.5C557 347 600 372 642.8 385.5C685.7 399 728.3 401 771.2 392.8C814 384.7 857 366.3 878.5 357.2L900 348L900 601L878.5 601C857 601 814 601 771.2 601C728.3 601 685.7 601 642.8 601C600 601 557 601 514.2 601C471.3 601 428.7 601 385.8 601C343 601 300 601 257.2 601C214.3 601 171.7 601 128.8 601C86 601 43 601 21.5 601L0 601Z" fill="#444cde"></path><path d="M0 472L21.5 472.7C43 473.3 86 474.7 128.8 469.2C171.7 463.7 214.3 451.3 257.2 440C300 428.7 343 418.3 385.8 420.8C428.7 423.3 471.3 438.7 514.2 446.8C557 455 600 456 642.8 447.7C685.7 439.3 728.3 421.7 771.2 423.7C814 425.7 857 447.3 878.5 458.2L900 469L900 601L878.5 601C857 601 814 601 771.2 601C728.3 601 685.7 601 642.8 601C600 601 557 601 514.2 601C471.3 601 428.7 601 385.8 601C343 601 300 601 257.2 601C214.3 601 171.7 601 128.8 601C86 601 43 601 21.5 601L0 601Z" fill="#182cd4"></path><path d="M0 507L21.5 496C43 485 86 463 128.8 450.7C171.7 438.3 214.3 435.7 257.2 438.3C300 441 343 449 385.8 452.2C428.7 455.3 471.3 453.7 514.2 459.3C557 465 600 478 642.8 485.8C685.7 493.7 728.3 496.3 771.2 488.8C814 481.3 857 463.7 878.5 454.8L900 446L900 601L878.5 601C857 601 814 601 771.2 601C728.3 601 685.7 601 642.8 601C600 601 557 601 514.2 601C471.3 601 428.7 601 385.8 601C343 601 300 601 257.2 601C214.3 601 171.7 601 128.8 601C86 601 43 601 21.5 601L0 601Z" fill="#0928b8"></path><path d="M0 556L21.5 550.2C43 544.3 86 532.7 128.8 524.7C171.7 516.7 214.3 512.3 257.2 517C300 521.7 343 535.3 385.8 538.3C428.7 541.3 471.3 533.7 514.2 530.7C557 527.7 600 529.3 642.8 525.5C685.7 521.7 728.3 512.3 771.2 507.7C814 503 857 503 878.5 503L900 503L900 601L878.5 601C857 601 814 601 771.2 601C728.3 601 685.7 601 642.8 601C600 601 557 601 514.2 601C471.3 601 428.7 601 385.8 601C343 601 300 601 257.2 601C214.3 601 171.7 601 128.8 601C86 601 43 601 21.5 601L0 601Z" fill="#00249d"></path></svg>