<svg id="visual" viewBox="0 0 900 600" width="900" height="600" xmlns="http://www.w3.org/2000/svg" xmlns:xlink="http://www.w3.org/1999/xlink" version="1.1"><rect x="0" y="0" width="900" height="600" fill="#c4fa6f"></rect><path d="M0 231L10.7 243C21.3 255 42.7 279 64.2 280C85.7 281 107.3 259 128.8 242.5C150.3 226 171.7 215 193 216.7C214.3 218.3 235.7 232.7 257 232.3C278.3 232 299.7 217 321.2 216C342.7 215 364.3 228 385.8 215.2C407.3 202.3 428.7 163.7 450 160.2C471.3 156.7 492.7 188.3 514.2 198C535.7 207.7 557.3 195.3 578.8 197C600.3 198.7 621.7 214.3 643 222.8C664.3 231.3 685.7 232.7 707 240.8C728.3 249 749.7 264 771.2 253C792.7 242 814.3 205 835.8 199.7C857.3 194.3 878.7 220.7 889.3 233.8L900 247L900 0L889.3 0C878.7 0 857.3 0 835.8 0C814.3 0 792.7 0 771.2 0C749.7 0 728.3 0 707 0C685.7 0 664.3 0 643 0C621.7 0 600.3 0 578.8 0C557.3 0 535.7 0 514.2 0C492.7 0 471.3 0 450 0C428.7 0 407.3 0 385.8 0C364.3 0 342.7 0 321.2 0C299.7 0 278.3 0 257 0C235.7 0 214.3 0 193 0C171.7 0 150.3 0 128.8 0C107.3 0 85.7 0 64.2 0C42.7 0 21.3 0 10.7 0L0 0Z" fill="#182CD4" stroke-linecap="round" stroke-linejoin="miter"></path></svg>