<svg id="eNmM3tlXcR81" xmlns="http://www.w3.org/2000/svg" xmlns:xlink="http://www.w3.org/1999/xlink" viewBox="0 0 500 540" shape-rendering="geometricPrecision" text-rendering="geometricPrecision"><defs><linearGradient id="eNmM3tlXcR82-fill" x1="250.29" y1="539.46" x2="250.29" y2="0" spreadMethod="pad" gradientUnits="userSpaceOnUse" gradientTransform="translate(0 0)"><stop id="eNmM3tlXcR82-fill-0" offset="9%" stop-color="#feba4e"/><stop id="eNmM3tlXcR82-fill-1" offset="15%" stop-color="#ea726d"/><stop id="eNmM3tlXcR82-fill-2" offset="16%" stop-color="#de7474"/><stop id="eNmM3tlXcR82-fill-3" offset="21%" stop-color="#ba7d8d"/><stop id="eNmM3tlXcR82-fill-4" offset="26%" stop-color="#9985a2"/><stop id="eNmM3tlXcR82-fill-5" offset="31%" stop-color="#7e8cb5"/><stop id="eNmM3tlXcR82-fill-6" offset="37%" stop-color="#6891c3"/><stop id="eNmM3tlXcR82-fill-7" offset="44%" stop-color="#5795cf"/><stop id="eNmM3tlXcR82-fill-8" offset="53%" stop-color="#4b98d7"/><stop id="eNmM3tlXcR82-fill-9" offset="66%" stop-color="#449adb"/><stop id="eNmM3tlXcR82-fill-10" offset="100%" stop-color="#439bdd"/></linearGradient><linearGradient id="eNmM3tlXcR864-fill" x1="171.74" y1="495.63" x2="171.74" y2="510.73" spreadMethod="pad" gradientUnits="userSpaceOnUse" gradientTransform="translate(0 0)"><stop id="eNmM3tlXcR864-fill-0" offset="9%" stop-color="#ffb91d"/><stop id="eNmM3tlXcR864-fill-1" offset="73%" stop-color="#3194af"/></linearGradient></defs><path d="M-1.02,539.46h502.62c0,0,0-539.46,0-539.46L-1.02,0c0,0,0,539.46,0,539.46Z" fill="url(#eNmM3tlXcR82-fill)"/><g><circle r="21.58" transform="translate(171.74 495.46)" fill="#f9d641"/><circle r="24.36" transform="translate(171.74 494.4)" fill="#f9d641"/></g><path d="M498.98,543.94h-500v-46.44h500v46.44Z" transform="translate(1 0)" fill="#3194af"/><path d="M293.74,500.2c0,0-.99.41-.47.71s5.72.36,5.72.36l5.92.34c.48.03,1.18.09,1.51.17s.47.06.63.21-.25.6.02.9.42.32,1.52.4s4.95,0,4.95,0l-7.21-3.7-12.58.61Z" fill="#fff"/><path d="M173.74,497.5c9.71,1.28,19.93,2.35,30.64,3.12c12.18.87,22.93.51,22.94,1.13.03.84-19.36,2-19.32,2.89.03.73,13.11,1.11,13.1,1.57c0,.14-1.15.19-1.19.54-.03.28.68.57.88.66c2.89,1.18,17.69.1,18.32,1.94.19.57-1.1,1.02-1.02,1.74.32,2.91,22.7,3.43,31.8,3.64c0,0,3.35.08,16.99,3.03.12.03.41.09.75.28c0,0,.82.44,1.34,1.43.83,1.58-.66,3.88-.37,5.45.69,3.77,11.63,3.72,11.75,5.29.19,2.39-24.81,6.27-24.63,8.1.09.85,5.62.89,5.66,1.87.03.64-2.3,1.07-2.3,1.25.01,1.06,81.53.82,192.94,0v-43.92h-298.28Z" fill="#61a9be"/><path d="M253.25,504.06c-1.76.7-2.15,2.2-2.02,2.27-.15.93,2.64,1.34,3.01,1.52s-.47.4,7.75,1.08c0,0,7.46.39,12.01.68c4.55.28,13.78-1.14,14.13.75s2.74,1.6,2.74,1.6l4.34.02c0,0,15.05-.55,15.77.23s10.16.32,10.16.32s2.29-.04.27,1.35-8.31,4.15-8.32,6.07c0,1.92,2.75,2.18,5.79,2.64s25.86-.04,26.62,0s2.19,1.08-.12,2.11c-3.29,1.48-2.32,2.42-1.12,2.59c1.29.18,7.6-1.07,11.21.32c3.62,1.39,14.1.15,14.5,2.31.35,1.87-18.63,3.5-23.72,3.91-1.21.1-2.37.61-3.21,1.53-.53.58-.93,1.33-.85,2.21.23,2.26,4.23,4.29,4.23,4.29l54.78-.36v-38.15l-102.55,1.53-42.17-1.43" fill="#fff"/><path d="M321.07,517.24c.55,1.58,8.34,1.95,19.93,2.37s11.53,1.13,12.57,1.55c.63.25.5,1.21.3,1.92-.19.67.12,1.37.73,1.65.66.3,1.73.62,3.47.86c4.27.59,16,2.94,15.83,3.96-.71,4.3-27.97,4.26-29.22,5.9-4.96,6.5,21.44,7.38,21.44,7.38s7.53,1.36,6.84,0c-.4-.78,28.26-1.36,28.26-1.36v-37.41h-147.97c.32,1.34,4.19,1.84,4.19,1.84l19.24,1.26c1.09.07,2.19.1,3.29.09c3.21-.04,10.43-.04,10.62.87.24,1.17,2.99,1.6,4.29,1.73.87.09,22.18,1.03,24.88.92c11.01-.43.92,5.35,1.32,6.48Z" fill="#d28d22"/><path d="M259.29,498.99c.57.01,12.3.05,12.3.05s9.67.04,20.09.57c0,0,2.87-.18,2.61.18-.25.35-1.14.44-.72.75s15.23.31,13.92,1.36s1.1,1.18,1.1,1.18s4.75-.27,4.72.57c-.04,1.01-56.81-.22-56.81-.22s-3.58.57-2.74.79.3.79,6.96,1.05s30.79.39,31.55,1.23c.76.83-.13,1.1,1.69,1.8c1.81.7,31.05.27,34.2,2.02c2.81,1.56,1.73,3.6,1.73,3.6-.1.44.34.93.91,1.36c1.04.79,2.26,1.24,3.54,1.4c5.62.68,26.15,3.26,26.39,4.44.28,1.37-2.54,1.28-1.51,2.55c1.04,1.28,18.85,3.43,19.79,4.9s.38,2.06-1.41,3.04-7.91,3.67-9.8,4.12c-2.23.53-3.02,1.67,1.13,3.33c4.15,1.67,3.02,2.58,3.02,2.58h128.34v-44.05h-273.85c.38,1.14,3.46,1.01,3.46,1.01" fill="#e7b16a"/><path d="M491.81,476.18c-2.14.46-1.25.08-5.24-1.15s-4.65,1.38-6.86-.15-11.22,1.84-12.4,2.84-12.37-1.81-15.55-2.36-7.58,1.7-11.73.89c-4.16-.81-16.95-2.5-21.63-.21l-37.89,2.29c-1.82-.43-17.95,2.96-20.23,2.67-2.28-.28-9.92,2.42-10.88,2.58s-3.28.31-4.37.03-3.41,1.71-4.78,1.85-3.1,1.89-4.87,2.42c-1.78.52-2.23-.28-3.78-.09s-2.96,1.04-2.96,1.04-4.42.62-9.83-1.18c-5.42-1.8-12.16-1-13.16-.66-1.15.39-.64,1.89-1.78,1.18-1.14-.72-3.46.1-5.14,0-1.68-.09-2.28,1.14-3.28,1.66s-10.42.3-10.97.43c-1.8.4-2.9,2.57-3.77,1.86s-4.25.65-7.61.84c-3.37.19-4.28,2.27-4.28,2.27l231.77,2.63v-22.81c0,0-6.64.69-8.78,1.15Z" fill="#009444"/><path d="M236.61,495.08c0,0,1.76-1.5,2.19-1s2.93,1.28,3.31,1s3.25-1.54,3.47-1.1s5.65-.06,6.51-.09s7.04-.53,7.36-.36s7.04.21,7.25-.03.8-.85,2.13-.91.59.44,2.56.39s2.72-.11,4.16.17s6.72.55,8.48.28s8.37-.22,8.64.44s1.44-.61,2.67-.44s7.68,1.28,9.23,1.05s2.29-.72,3.25-.61s8.53.17,10.67,0c2.13-.17,4.16-.94,4.69-.5s13.28,1.89,15.04,1.5s11.95.06,14.03-.28s12.16-.11,15.2-.33s1.33-.5,4.05-.83s4.43.78,7.95.94s6.08,1.17,9.39,1.39s24.99-.69,33.39-1.47c19.12-1.78,78.09.91,78.09.91v2.35h-267.41c0,0,.75-1.19,1.96-1.31s1.74-1.14,1.74-1.14Z" fill="#39b54a"/><path d="M-1.48,498.83c102.4,2.04,130.96,3.17,130.95,3.83-.01,1.18-92.3,1.61-109.72,1.69-8.71.04-16.21.06-22.08.07" transform="translate(3 0)" fill="#41809b"/><path d="M-2.18,509.9c154.26-.19,212.84,1.71,212.86,3.05.02,1.09-32.5,1.36-134.69,3.47-26.11,1.83-52.21,3.67-78.32,5.5" transform="translate(3 0)" fill="#41809b"/><path d="M-33.93,530c102.4,2.04,130.96,3.17,130.95,3.83-.01,1.18-92.3,1.61-109.72,1.69-8.71.04-16.21.06-22.08.07" transform="translate(35-1)" fill="#41809b"/><path d="M398.29,509c0,0-3.09-.33-3.22,1.34s6.56,1.67,5.66,2.48-29.13-.07-30.23,2.81c0,0-.64,1.41.64,2.28s18.78,2.88,20.51,4.08s5.53,2.01,6.37,3.21c0,0,3.78,3.56,2.32,5.7s8.4,4.01,9.34,6.33s1.63,1.7,1.2,4.46s89.39,0,89.39,0v-33.85c0,0-48.37,1.04-77.42.77" fill="#e4c07a"/><g><path d="M472.53,464.2c0,0-.03,0-.05,0c0,0,0,0,0,0c.02,0,.03,0,.05,0Z"/><path d="M472.48,464.19c0,0,0,0,0,0-.55-.12-.89-.2-1.28-.27.32.06.67.14,1.28.27Z"/><path d="M469.8,463.69c0,0,.05,0,.08.01v0c0,0-.05,0-.08-.01Z"/><path d="M461.36,515.42c.37-.78.73-1.57,1.12-2.34.16-.32.17-.64.14-.98-.01-.15-.1-.25-.25-.23-.2.02-.41.08-.61.09-.12,0-.27-.04-.34-.12-.06-.08-.06-.24-.05-.36.01-.1.08-.2.13-.3.32-.64.63-1.27.95-1.91.15-.31.23-.65.17-1-.04-.22-.17-.32-.38-.29-.12.02-.24.06-.37.07-.11,0-.23.01-.32-.04-.19-.11-.22-.28-.11-.5.34-.68.7-1.35,1.04-2.03.17-.33.22-.69.18-1.06-.03-.23-.13-.32-.36-.3-.12,0-.24.03-.35.06-.19.05-.31-.04-.41-.19-.1-.14-.04-.28.03-.4.31-.56.62-1.12.93-1.67.24-.42.28-.88.26-1.36c0-.17-.1-.28-.28-.28-.15,0-.3.02-.45,0-.07,0-.16-.04-.21-.09-.14-.14-.15-.3-.05-.48.25-.43.5-.87.76-1.3.27-.44.41-.91.38-1.44-.02-.48.05-.54-.5-.55-.39,0-.52-.28-.31-.63.22-.37.45-.74.68-1.1.18-.28.31-.58.35-.92.03-.25.04-.51.06-.76.02-.3-.09-.43-.38-.45-.35-.02-.49-.31-.3-.62.12-.2.26-.4.39-.6.24-.36.47-.72.53-1.17.03-.26.06-.52.09-.77.04-.34.04-.64-.39-.74-.22-.05-.27-.33-.14-.53.1-.16.22-.32.33-.48.21-.33.46-.63.52-1.05.04-.32.08-.63.13-.94.06-.39.07-.74-.35-.93-.11-.05-.13-.18-.06-.29.08-.14.17-.27.27-.4.26-.35.46-.72.53-1.17.06-.41.14-.82.21-1.23.03-.18,0-.34-.13-.48-.27-.29-.27-.38-.04-.7.1-.14.2-.27.29-.41.08-.14.17-.29.21-.45.14-.62.26-1.25.41-1.88.04-.16-.02-.24-.13-.33-.27-.22-.28-.24-.05-.5.32-.37.55-.79.66-1.27.12-.52.26-1.04.38-1.57.02-.1,0-.23-.04-.33-.15-.32-.14-.35.07-.65.17-.25.34-.52.44-.81.22-.63.39-1.28.58-1.93.02-.08.02-.19-.01-.26-.14-.25-.06-.43.09-.64.17-.22.33-.46.43-.72.24-.62.46-1.25.66-1.88.05-.15.05-.34.02-.5-.04-.19,0-.33.12-.46.27-.28.47-.61.61-.97.17-.43.35-.86.53-1.29.01-.03.03-.05.04-.07-.6-.13-.96-.21-1.28-.27-.34-.06-.72-.13-1.32-.22v.02c0,0-.02.04-.03.06-.3.48-.4,1.01-.4,1.58c0,.36-.06.43-.41.47-.18.02-.29.1-.37.26-.16.35-.33.69-.49,1.03-.15.32-.19.66-.18,1.01.02.29.03.59.03.88c0,.31-.14.46-.44.43-.31-.03-.39.01-.51.3-.17.45-.41.89-.42,1.39c0,.41.04.82.07,1.23c0,.15.03.3.04.45c0,.27-.2.44-.45.37-.34-.09-.45-.04-.57.3-.17.51-.38,1.01-.31,1.57.06.49.14.98.21,1.47.02.15.05.31.06.47.01.2-.12.27-.28.18-.1-.06-.2-.14-.31-.19-.21-.09-.36-.03-.44.18-.25.64-.39,1.3-.24,2c.09.41.15.83.22,1.25.05.33-.16.52-.47.44-.32-.09-.44-.02-.52.33-.06.26-.13.53-.2.84-.08-.06-.17-.11-.26-.17.61.85,2.96,1.7.6,2.55.01.03.01.07,0,.11-.05.17-.16.26-.33.27-.05,0-.1-.01-.15-.02-.26-.06-.43.04-.48.31-.05.22-.09.44-.15.66.1,1.29.37,3.27.37,4.1c0-1.24-.36-1-.85-.83-.05.29-.11.57-.16.86-.1.66.14,1.25.31,1.86.04.15.09.3.11.45.04.21-.1.39-.3.41-.5.05-.58.13-.61.64-.03.45-.04.9-.04,1.35c0,.17.07.34.12.51.1.32.21.64.3.96.09.29-.07.5-.36.5-.28,0-.42.12-.44.41-.04.5-.1,1-.06,1.5.03.36.2.71.3,1.06.05.17.12.33.17.5.08.29-.07.5-.36.53-.34.03-.39.08-.43.43-.03.28-.05.56-.07.84-.05.51.1.98.28,1.44.09.24.18.48.26.73.1.3-.05.51-.36.53-.26.01-.38.11-.4.37-.03.38-.04.77-.05,1.15-.02.41.16.77.29,1.14.1.3.23.59.33.89.1.29-.09.66-.36.77-.25.1-.59-.13-.67-.47-.08-.33-.03-.67.07-.98.17-.51.21-1.02.09-1.55-.06-.27-.09-.31-.35-.33-.14-.01-.23-.08-.22-.23.02-.19.04-.38.1-.55.17-.52.18-1.04.05-1.57-.04-.17-.13-.27-.31-.27-.24,0-.33-.13-.28-.38.08-.34.2-.68.21-1.02c0-.37-.08-.74-.16-1.11-.01-.05-.16-.1-.25-.1-.26-.02-.33-.07-.3-.35.03-.29.1-.57.16-.86.08-.43.01-.85-.13-1.26-.04-.12-.11-.16-.23-.14-.08.01-.18.02-.25-.01-.15-.07-.18-.2-.15-.37.07-.38.16-.75.17-1.13c0-.31-.11-.62-.17-.93-.02-.12-.11-.15-.21-.14-.06,0-.11.01-.17.01-.19,0-.28-.08-.26-.27.03-.39.1-.77.13-1.16s-.11-.75-.29-1.09c-.02-.04-.16-.03-.24-.02-.12.02-.23.06-.34.09c0-.13-.04-.26-.03-.39.02-.31.06-.62.09-.93.05-.44-.11-.83-.28-1.21-.02-.05-.11-.09-.18-.1-.08-.02-.18.02-.26,0-.07-.02-.17-.09-.17-.15-.03-.18-.04-.38-.02-.56.05-.52,0-1.01-.25-1.47-.1-.19-.23-.29-.43-.27-.18.02-.25-.06-.26-.25-.01-.33.01-.68-.07-.99-.09-.33-.28-.63-.45-.93-.05-.08-.17-.15-.26-.17-.19-.03-.25-.16-.25-.31c0-.53-.23-.98-.51-1.4l-.02-.18-1.51.88c.05.1.09.18.12.26.23.47.4.97.78,1.35.03.03.05.11.05.16-.03.25.05.48.14.7.22.53.35,1.12.77,1.55.03.03.04.1.03.14-.08.23,0,.45.07.66.2.55.29,1.16.72,1.61.03.04.05.14.03.18-.12.22-.05.43.01.64.17.59.27,1.21.74,1.65.03.03,0,.14-.03.21-.04.09-.14.19-.13.26.16.65.19,1.35.68,1.86.13.13.1.26,0,.4-.06.08-.13.2-.11.29.11.63.19,1.26.64,1.76.16.19.13.3-.06.46-.1.09-.13.18-.11.31.07.65.24,1.26.68,1.76.19.21.13.35-.11.49-.08.05-.17.17-.17.25.03.47.08.93.38,1.32.14.18.27.36.38.56.11.18.05.33-.14.4-.05.02-.12.02-.16.05-.05.04-.13.11-.13.16.04.37.02.76.23,1.09.17.27.34.53.52.79.19.3.11.48-.24.5-.18,0-.26.1-.26.28c0,.31.07.61.23.88.14.23.28.44.42.67.08.13.16.25.21.39.08.2-.01.33-.22.33-.04,0-.08,0-.11,0-.27,0-.35.12-.33.39.03.36.2.67.37.97.16.28.33.55.49.84.04.08.07.22.02.28-.05.07-.18.1-.27.13-.06.02-.14-.01-.2-.02-.18-.03-.23.07-.24.23-.01.28.07.54.2.78.22.4.45.79.67,1.2.04.07.06.21.02.26-.06.08-.18.13-.28.15-.08.02-.17-.02-.26-.04-.18-.04-.26.07-.24.23.02.2.06.4.14.58.14.32.32.62.48.93.09.18.19.35.28.53.04.08.04.15,0,.22l5.59.03c0,0,.02-.06.03-.09Z" fill="#c17510"/><path d="M486.28,464.39c-.56-2.55-1.75-4.7-3.76-6.3-1.83-1.46-3.91-1.96-6.19-1.61-.23.04-.46.07-.69.11-.01-.02-.02-.03-.03-.05.23-.27.46-.54.68-.8h-1.63c1.73-.97,3.54-1.65,5.45-2.01c0-.02,0-.04,0-.05-.5-.11-1-.22-1.5-.34.04-.06.07-.07.09-.08c1.03-.3,2.06-.53,3.13-.57c1.05-.04,2.09-.06,3.14-.08.23,0,.46-.02.68-.04-.13-.13-.27-.22-.42-.3-1.17-.65-2.44-.91-3.74-1.02-.84-.07-1.68-.05-2.51.03-.94.09-1.87.27-2.77.56-1.44.46-2.78,1.13-3.92,2.19-.2.19-.39.38-.6.59-.06-.1-.11-.19-.16-.28-.35-.71-.8-1.33-1.33-1.91-1.01-1.09-2.21-1.89-3.53-2.5-1.27-.59-2.6-.99-3.98-1.19-.35-.05-.7-.1-1.05-.16h-1.39c-.38.07-.77.11-1.14.2-.39.09-.78.22-1.16.37c1.93.21,3.82.57,5.68,1.09c0,.02,0,.04,0,.05-.57.13-1.14.27-1.76.41.85.28,1.64.53,2.42.81.78.27,1.54.6,2.26,1.01h-1.86c.46.5.87.95,1.19,1.55-.28-.08-.52-.15-.75-.22-.67-.19-1.34-.27-2.04-.28-3.39-.05-6.34,1.19-9,3.28-.41.33-.77.73-1.14,1.12c2.21-1.08,4.51-1.82,6.9-2.26l.02.05c-.66.33-1.31.66-1.97.98l.02.08c.7.09,1.4.19,2.06.53-.11.04-.21.08-.32.11-2.73.85-5.25,2.12-7.52,3.9-1.34,1.05-2.56,2.24-3.5,3.71-.37.57-.69,1.18-.82,1.87-.03.19-.05.39-.07.64.1-.07.16-.1.21-.14.57-.43,1.15-.87,1.71-1.31.1-.08.18-.21.24-.33.34-.73.68-1.46,1.02-2.19.03-.06.07-.12.13-.17-.11.61-.22,1.22-.33,1.83.02.01.03.02.05.03.06-.03.13-.07.19-.1.78-.49,1.57-.97,2.35-1.47.07-.05.12-.14.16-.22.34-.74.67-1.48,1-2.22.04-.08.09-.15.16-.21-.11.7-.3,1.38-.29,2.13c1.05-.46,2.09-.86,3.19-1.05c0,.02.02.03.03.05-.1.1-.19.2-.29.29-1.49,1.46-2.81,3.06-3.84,4.91-1.01,1.8-1.69,3.73-2.01,5.79-.03.19-.08.38-.09.57c0,0,0,0,0,.01l1.46-.43c.06-.11.1-.19.15-.25.13-.19.17-.4.18-.62.05-.93.2-1.85.41-2.76c0-.04.03-.08.05-.13.07.69.14,1.37.22,2.04.02,0,.05,0,.07,0c.08-.1.15-.2.23-.3.49-.7.98-1.4,1.47-2.11.05-.07.07-.18.08-.27.05-1.06.2-2.11.45-3.14c0-.04.03-.07.04-.1.08.76.08,1.51.34,2.26.83-1.04,1.57-2.11,2.49-3.02.02.02.04.03.07.05-.06.17-.12.33-.18.5-.44,1.17-.78,2.37-.96,3.62-.3,2.03-.12,4.02.53,5.96c0,.02.02.03.04.07.18-.55.36-1.09.53-1.63.47-1.41.97-2.8,1.57-4.16.07-.15.08-.34.07-.51-.02-1.26.15-2.49.43-3.72.01-.05.03-.1.06-.14.08.83.09,1.67.42,2.49.06-.08.11-.14.15-.21.46-.7.96-1.37,1.55-1.96.17-.17.1-.41.13-.61.13-.71.24-1.42.36-2.13c0-.04.03-.08.06-.14.08.71.16,1.4.23,2.09.02,0,.04.02.07.02.92-.69,1.92-1.22,3.04-1.56l-.02.07c.62.09.96.15,1.32.22.39.07.72.15,1.28.27.01-.02.02-.03.03-.05.02,0,.04,0,.07-.01.37.86.77,1.71,1.11,2.59s.64,1.78.97,2.72c.2-.39.39-.74.55-1.1s.28-.74.42-1.11c.02,0,.04,0,.06.01-.01.17-.03.34-.04.51-.06.95-.21,1.9-.45,2.82-.08.32-.17.62-.1.97.2.98.3,1.98.32,2.98.02.84,0,1.68,0,2.53c0,.06,0,.11,0,.17.61-.76,1.05-1.61,1.5-2.47c0,.17-.03.33-.06.5-.34,1.82-.86,3.6-1.68,5.25-.48.96-.61,2.02-.93,3.07.08-.05.13-.07.16-.1.37-.34.77-.65,1.11-1.02c1.01-1.11,1.64-2.45,2.09-3.89.56-1.78.83-3.61.85-5.48.02-1.49-.01-2.98-.36-4.45-.05-.22-.1-.45-.17-.72.11.06.18.09.24.13.43.28.78.64,1.05,1.07.51.81.8,1.71,1.02,2.65.12.49.21.98.32,1.48.02,0,.04,0,.05,0c.2-.72.4-1.44.6-2.16.04.06.05.12.05.19c0,.73.03,1.46,0,2.19-.03.67-.13,1.33-.21,2-.03.27-.13.54-.11.81.04.56.13,1.12.21,1.68.04.25.09.49.15.79c2.26-5.87,2.1-11.56-.81-17.16c1.26.21,2.34.66,3.34,1.41-.09-.94-.38-1.8-.61-2.67.52.48.96,1.02,1.32,1.63.35.6.69,1.21.98,1.85s.54,1.3.77,1.96.41,1.33.61,2c.02,0,.04,0,.06.01.22-.77.44-1.53.65-2.3.02,0,.04,0,.06,0c0,.47.02.95,0,1.42-.03.78-.09,1.56-.14,2.34-.02.3-.09.6-.06.89.06.63.16,1.26.25,1.89.02.17.05.35.08.56.06-.08.08-.11.11-.15.94-1.42,1.35-3.03,1.45-4.73.05-.9-.07-1.78-.26-2.65Z" fill="#006838"/><path d="M450.53,482.53c.9.16,1.7.55,2.46,1.08.17-.46.12-.92.23-1.37.03.1.08.2.09.31.07.45.13.91.2,1.37.01.08.04.17.08.23.35.45.7.9,1.06,1.35.01.02.04.03.11.08.08-.57.16-1.1.24-1.63c0,0,.02,0,.03,0c.05.2.11.4.13.61.07.72.13,1.44.19,2.15c0,.06.02.12.03.17.44,1.19.88,2.39,1.32,3.58.02.05.04.11.06.16.28-.39.48-1.85.42-3.36-.05-1.15-.42-2.23-.78-3.32.36.26.62.61.89.95.27.33.53.67.79,1.01.02,0,.04,0,.07-.01.05-.49.11-.97.17-1.52.05.14.1.24.11.35.08.6.15,1.21.24,1.81.02.12.06.24.12.34.22.33.45.64.67.97.04.06.04.16.02.24-.01.09-.03.17-.05.26.5-.17.85-.41.85.83c0-.84-.26-2.81-.37-4.1c0,.04-.01.07-.02.11-.71-1.11-1.57-2.08-2.49-3c.01-.03.03-.05.04-.08.69.23,1.37.46,2.11.71-.06-.44-.13-.88-.19-1.32c0,0,.01,0,.02-.01.11.22.24.43.34.65.12.26.21.54.32.81.04.09.1.19.17.24.2.14.42.26.63.38.07.04.15.09.18.17c2.36-.85,0-1.7-.6-2.55-1.44-1.01-3-1.75-4.71-2.27.48-.21.93-.29,1.39-.33c0-.02.01-.04.02-.05-.2-.11-.39-.22-.59-.33-.2-.1-.41-.19-.61-.29c0-.02,0-.04.01-.06.3.07.61.13.91.2.31.08.62.16.92.25s.6.19.89.3c.3.11.6.23.89.35s.58.26.87.4c.01-.02.02-.03.04-.05-.3-.28-.59-.58-.91-.83-1.41-1.1-3-1.79-4.75-2.04-.93-.13-1.85-.07-2.75.22-.06.02-.12.03-.18.04-.02-.02-.03-.03-.05-.05.25-.31.5-.63.75-.96h-1.12c0,0-.01-.04-.02-.06.97-.48,1.99-.83,3.02-1.16-.37-.08-.73-.17-1.1-.25c0-.02,0-.03,0-.05c1.23-.35,2.48-.58,3.8-.7-.73-.37-1.46-.37-2.19-.38-.74,0-1.45.12-2.22.31c0-.01.01-.02.02-.04l-1.46.43c-.01.13-.08.19-.18.24-.7.35-1.35.78-1.92,1.32-.46.44-.84.93-1.14,1.49-.04.08-.09.16-.16.3-.13-.16-.22-.3-.35-.42-.9-.85-1.99-1.32-3.15-1.63-1.12-.3-2.26-.27-3.4-.2-.76.05-1.48.29-2.15.67-.07.04-.14.09-.2.16c1.57.05,3.14-.05,4.65.53-.31.07-.61.14-.92.21c1.24.28,2.41.74,3.53,1.38h-1.02c.16.2.3.37.42.53-.5-.02-.99-.05-1.48-.07-1.08-.04-2.04.33-2.91.96-1.37.99-2.2,2.38-2.63,4.04-.1.39-.16.8-.23,1.2c0,.05-.03.1-.04.15v1.06c.03.1.06.2.07.3.12.89.38,1.72.86,2.47.02.04.06.07.1.12.04-.31.09-.58.12-.86.04-.32.09-.65.08-.97-.02-.88-.07-1.76-.11-2.63c0-.06,0-.13.01-.19.02,0,.03,0,.05,0c.14.49.28.98.42,1.46.54-1.82,1.14-3.57,2.49-4.92-.14.56-.27,1.11-.42,1.7.39-.2.73-.39,1.08-.56.36-.17.73-.29,1.16-.32-.59,1.19-1.06,2.4-1.32,3.69-.26,1.3-.32,2.6-.17,3.92.15,1.3.48,2.54.94,3.76.05-.17.1-.34.11-.52.04-.47.13-.96.07-1.42-.13-.95-.18-1.9-.17-2.86c0-.06.01-.12.02-.18.01,0,.03,0,.04,0c.13.44.25.88.38,1.33h.05c.05-.23.1-.46.15-.69.16-.72.37-1.42.76-2.04.2-.32.46-.57.82-.75c0,.08,0,.14,0,.19-.22.82-.29,1.66-.31,2.51-.03,1.43.1,2.85.51,4.22.35,1.19.88,2.27,1.78,3.11.14.13.29.25.43.37.02-.02.05-.03.07-.05-.19-.61-.33-1.25-.59-1.84-.52-1.17-.91-2.37-1.17-3.63-.02-.11-.03-.22-.05-.33c0,0,.02,0,.03,0c.31.54.62,1.09.93,1.63l.06-.03c0-.29,0-.58,0-.87c0-.85.02-1.69.15-2.53.04-.27.07-.56.03-.82-.08-.58-.21-1.16-.31-1.74-.04-.21-.03-.43-.05-.64.02,0,.04,0,.05-.01.18.49.35.97.66,1.44.33-1.07.69-2.08,1.18-3.09c0,.02.01.03.02.05l1.51-.88v-.07Z" fill="#006838"/><g><path d="M467.91,517.34c.84-.5,1.74-.84,2.65-1.17.18-.07.37-.14.57-.22-.03-.03-.04-.04-.05-.04-1.05-.26-2.1-.47-3.18-.45-.92.02-1.79.25-2.61.67-.78.4-1.43.99-2.03,1.63-.05.05,2.55,1.47,2.5,1.52.01-.07.03-.11.06-.14.63-.69,1.29-1.33,2.09-1.8Z" fill="#006838"/><g><path d="M453.54,516.53c-.39-1.91-1.07-3.69-2.22-5.26-.03-.04-.06-.07-.09-.1.69,2.36,1.24,4.73,1.29,7.24l1.3-.28c-.09-.53-.18-1.07-.29-1.6Z" fill="#006838"/><path d="M457.17,516.02c-.8-1.76-1.86-3.34-3.33-4.58-.03-.03-.07-.05-.11-.08c1.2,2.13,2.26,4.31,2.87,6.73l1.2-.58c-.21-.5-.41-1-.64-1.49Z" fill="#006838"/><path d="M458.61,517.85c-.14-2.65-.76-5.22-2.15-7.63-.03-.06-.07-.11-.11-.16.5,3.33.78,6.65.27,9.98l2.06.02c-.01-.74-.03-1.47-.07-2.21Z" fill="#006838"/><path d="M478.73,523.7c-2.03-.87-4.15-1.35-6.3-1.69-.79-.12-1.58-.22-2.38-.32-.78-.1-1.55-.18-2.33-.27-.26-.03-.51-.06-.77-.09c0-.02,0-.04,0-.06c2.41-.96,4.83-1.91,7.28-2.89-2.94-.68-5.79-.6-8.59.5c0-.08-2.65-1.5-2.63-1.55.31-.75.63-1.5,1.11-2.15.75-1.02,1.53-2.02,2.3-3.02.08-.11.16-.21.25-.32-.1,0-.17.04-.24.08-.99.52-1.89,1.18-2.75,1.89-.68.57-1.36,1.13-2.04,1.7-.08.07-.19.11-.28.17-.02-.01-.03-.03-.05-.04.01-.05.03-.09.04-.14l-5.59-.03c0,0-.02.07-.06.1-.11.1-.2.03-.28-.05-.09-.08-.17-.17-.24-.27-.34-.46-.66-.94-1.01-1.39-.17-.22-.39-.41-.59-.61-.04.09-.05.15-.04.2.18,1.13.38,2.25.54,3.38.08.58.07,1.17.09,1.75c0,.2-.04.4-.07.6-.05-.03-.07-.07-.07-.1-.06-.32-.11-.64-.17-.97l-1.3.28c0,.07.01.14.01.2-.05-.04-.06-.04-.07-.05s-.02-.03-.03-.05c-.53-1.02-1.37-1.63-2.4-2-.7-.25-1.42-.35-2.15-.41-.15-.01-.3,0-.46,0c1.8,1.18,3.43,2.52,4.77,4.3-.44.21-.84.42-1.25.59-1.32.54-2.71.84-4.07,1.22-1.79.49-3.59.99-5.38,1.49-.04.01-.09.03-.17.06h37.48c0,0-.06-.05-.09-.06Z" fill="#006838"/><path d="M461.77,514.28c.48-.88,1.08-1.65,1.7-2.42.13-.16.24-.32.38-.49-.04,0-.05-.01-.06-.01-1.03.34-2.03.71-2.96,1.31-.78.51-1.42,1.16-1.92,1.97-.47.76-.74,1.61-.94,2.48-.02.07,2.92-.09,2.9-.03-.02-.07-.03-.11-.02-.15.2-.93.46-1.83.91-2.66Z" fill="#006838"/><path d="M452.41,520.23c-1.72-.78-3.51-1.23-5.4-1.16-.04,0-.09,0-.13.01c2.25.78,4.43,1.69,6.42,3.09l.54-1.26c-.47-.23-.94-.46-1.42-.68Z" fill="#006838"/></g></g></g><g><ellipse rx="18.99" ry="2.13" transform="translate(430.03 524.62)" opacity="0.18" fill="#231f20"/><path d="M429.89,516.03v8.78h17.63c0,0-.73-6.13,0-7.43s-17.63-1.35-17.63-1.35" fill="#f88a1e"/><path d="M411.04,519.14h6.9l4.19-16.46-.92-1.65c0,0-2.44,5.21-4.23,8.39s-5.94,9.72-5.94,9.72Z" fill="#b2692d"/><path d="M414.09,516.03l-.29,8.78h16.81c0,0-.51-3.63-.19-7.63l-8.63-15.72c-2.94,6.08-5.61,10.88-7.7,14.57Z" fill="#e57e20"/><path d="M439.65,501.03c0,0-10.26,1-18.44,0l10.1,18.11c0,0,11.07-1.34,18.52,0" fill="#f79a46"/><path d="M416.83,524.82c0,0,3.26-10.82,4.38-17.83c0,0,1.51,8.92,4.79,17.77l-9.17.06Z" fill="#b2692d"/></g><g><ellipse rx="11.05" ry="1.24" transform="translate(381.87 509.56)" opacity="0.18" fill="#231f20"/><path d="M381.95,504.57v5.11h-10.26c0,0,.42-3.57,0-4.32s10.26-.79,10.26-.79" fill="#f88a1e"/><path d="M392.92,506.37h-4.01c0,0-2.44-9.58-2.44-9.58l.53-.96c0,0,1.42,3.03,2.46,4.88s3.45,5.65,3.45,5.65Z" fill="#b2692d"/><path d="M391.15,504.57l.17,5.11h-9.78c0,0,.3-2.11.11-4.44l5.02-9.14c1.71,3.54,3.26,6.33,4.48,8.48Z" fill="#e57e20"/><path d="M376.27,495.84c0,0,5.97.58,10.73,0l-5.88,10.54c0,0-6.44-.78-10.78,0" fill="#f79a46"/><path d="M389.55,509.68c0,0-1.9-6.29-2.55-10.38c0,0-.88,5.19-2.79,10.34l5.33.04Z" fill="#b2692d"/></g><g><path d="M417.19,504.38c0,.56-4.02,1.01-8.98,1.01s-8.98-.45-8.98-1.01s4.02-1.01,8.98-1.01s8.98.45,8.98,1.01Z" opacity="0.18" fill="#231f20"/><path d="M408.14,500.31v4.15c0,0,8.34,0,8.34,0s-.34-2.9,0-3.51-8.34-.64-8.34-.64" fill="#f88a1e"/><path d="M399.22,501.78h3.26c0,0,1.98-7.79,1.98-7.79l-.43-.78c0,0-1.16,2.46-2,3.97-.85,1.51-2.81,4.6-2.81,4.6Z" fill="#b2692d"/><path d="M400.66,500.31l-.14,4.15h7.95c0,0-.24-1.72-.09-3.61l-4.08-7.44c-1.39,2.88-2.65,5.15-3.64,6.89Z" fill="#e57e20"/><path d="M412.76,493.22c0,0-4.86.47-8.73,0l4.78,8.57c0,0,5.24-.63,8.76,0" fill="#f79a46"/><path d="M401.96,504.47c0,0,1.54-5.12,2.07-8.44c0,0,.71,4.22,2.27,8.41l-4.34.03Z" fill="#b2692d"/></g><ellipse rx="7.82" ry="2.35" transform="translate(401.54 514.57)" opacity="0.28" fill="#ffa022"/><g><path d="M399.3,513.3c.07-.08-.01-.11-.05-.14-.63-.49-.77-1.14-.59-1.88.11-.46.26-.91.41-1.41.3.37.34.78.47,1.19.35-.31.49-.7.57-1.11.07-.31.1-.64.05-.95-.18-1.1.12-2.1.54-3.09.16-.39.33-.77.61-1.19-.02.86-.05,1.64.01,2.42.06.8.41,1.48.77,2.17c0-.41.05-.81.23-1.27.14.43.2.8.17,1.17-.02.2-.21.17-.37.21.06.11.05.28.19.3.12.01.16-.15.22-.24.56-.85.62-1.76.29-2.71c1.58.63,2.3,4.62,1.3,6.04-1.09,1.3-3.18,1.35-4.69.56-.03-.06-.05-.14-.14-.05v0Zm4.04-3.19c-.11.1-.1.22-.15.31-.16.33-.21.71-.45,1-.13.16-.24.18-.37-.01-.42-.66-.8-1.34-1-2.1-.03-.13.05-.38-.12-.38-.15,0-.2.24-.25.39-.02.06-.03.12-.04.18-.15.81-.12,1.62,0,2.42c0,.06,0,.14-.03.18-.06.07-.14.02-.2-.02-.2-.11-.37-.25-.52-.41-.1-.11-.16-.11-.22.05-.11.31,0,.89.24,1.1.9.79,1.75.69,2.56.07.91-.7.85-1.6.56-2.78Z" fill="#f76e08"/><path d="M399.43,513.36c1.5.8,3.6.74,4.69-.56.17-.03.33-.07.5-.1.29-.05.61.15.68.4.08.3-.12.74-.38.82-.4.12-.79.23-1.28.37.57.15,1.07.27,1.56.42.14.04.33.02.42.18-.57.2-.68.52-.39,1.08.02.04.07.08,0,.13-.75-.25-1.51-.48-2.26-.75-.58-.21-1.17-.3-1.77-.33-.26-.02-.5.02-.75.1-.88.3-1.79.5-2.71.68-.11-.13.06-.16.09-.22.27-.45.1-.91-.41-1.08.22-.13.49-.08.76-.19-.27-.19-.47-.39-.45-.73.02-.36.28-.58.64-.53.31.05.59.22.91.24c0,0,0,0,0,0c.02.08.08.07.14.05Z" fill="#c17510"/><path d="M397.44,514.51c.51.17.68.62.41,1.08-.04.06-.2.09-.09.22-.52.15-.89,0-.96-.41-.09-.51.15-.83.64-.89Z" fill="#c17510"/><path d="M405.25,516.11c.06-.05.01-.09,0-.13-.29-.57-.18-.88.39-1.08.34-.08.48.21.59.4s.11.48-.06.69c-.18.22-.39.32-.67.2-.08-.03-.17,0-.24-.07Z" fill="#c17510"/><path d="M399.6,507.78c-.01.66.1,1.3.09,1.95c0,.07.03.17-.07.19-.08.02-.13-.07-.17-.13-.11-.16-.18-.34-.19-.53-.04-.53.11-1.01.34-1.48Z" fill="#f94406"/><path d="M403.34,510.11c.29,1.18.35,2.09-.56,2.78-.81.62-1.66.72-2.56-.07-.24-.21-.34-.79-.24-1.1.06-.16.12-.16.22-.05.15.17.33.3.52.41.06.04.14.09.2.02.03-.04.04-.12.03-.18-.11-.81-.14-1.62,0-2.42.01-.06.02-.13.04-.18.05-.16.1-.39.25-.39.17,0,.09.25.12.38.2.77.58,1.44,1,2.1.12.19.24.17.37.01.24-.3.29-.67.45-1c.04-.09.04-.2.15-.31Z" fill="#fed900"/><path d="M399.43,513.36c-.06.01-.12.03-.14-.05.09-.08.11,0,.14.05Z" fill="#fefefd"/></g><path d="M183.86,502.12c0-.88,8.39-.86,8.39-1.43c0-.72-5.26-1.21-5.17-1.77.1-.65,8.26-1.42,8.26-1.42h-47.19c0,0,1.75.18,5.76,1.02c3.51.73,4.12.95,4.01,1.46-.12.55-6.48.53-6.51,1.46-.03.85,6.96.78,7.07,1.74.09.78-5.85,1.52-5.83,2.32.02,1.09,10.14,1.27,19.09,1.34c10.39.08,6.82.38,13.47-.41c4.23-.5,6.72-.71,6.74-1.78.03-1.76-8.09-1.38-8.09-2.53Z" fill="url(#eNmM3tlXcR864-fill)"/></svg>
