<svg id="visual" viewBox="0 0 900 600" width="900" height="600" xmlns="http://www.w3.org/2000/svg" xmlns:xlink="http://www.w3.org/1999/xlink" version="1.1"><rect x="0" y="0" width="900" height="600" fill="#c4fa6f"></rect><path d="M0 245L21.5 274C43 303 86 361 128.8 393.5C171.7 426 214.3 433 257.2 411.7C300 390.3 343 340.7 385.8 334.3C428.7 328 471.3 365 514.2 359.7C557 354.3 600 306.7 642.8 319.2C685.7 331.7 728.3 404.3 771.2 413.3C814 422.3 857 367.7 878.5 340.3L900 313L900 601L878.5 601C857 601 814 601 771.2 601C728.3 601 685.7 601 642.8 601C600 601 557 601 514.2 601C471.3 601 428.7 601 385.8 601C343 601 300 601 257.2 601C214.3 601 171.7 601 128.8 601C86 601 43 601 21.5 601L0 601Z" fill="#182CD4" stroke-linecap="round" stroke-linejoin="miter"></path></svg>