<svg id="visual" viewBox="0 0 960 540" width="960" height="540" xmlns="http://www.w3.org/2000/svg" xmlns:xlink="http://www.w3.org/1999/xlink" version="1.1"><rect x="0" y="0" width="960" height="540" fill="#c4fa6f"></rect><path d="M0 236L11.5 236.8C23 237.7 46 239.3 68.8 219C91.7 198.7 114.3 156.3 137.2 157C160 157.7 183 201.3 205.8 214.8C228.7 228.3 251.3 211.7 274.2 187.3C297 163 320 131 342.8 119.3C365.7 107.7 388.3 116.3 411.2 140.8C434 165.3 457 205.7 480 203.2C503 200.7 526 155.3 548.8 140.5C571.7 125.7 594.3 141.3 617.2 154.5C640 167.7 663 178.3 685.8 172.7C708.7 167 731.3 145 754.2 146.3C777 147.7 800 172.3 822.8 196.5C845.7 220.7 868.3 244.3 891.2 232.2C914 220 937 172 948.5 148L960 124L960 0L948.5 0C937 0 914 0 891.2 0C868.3 0 845.7 0 822.8 0C800 0 777 0 754.2 0C731.3 0 708.7 0 685.8 0C663 0 640 0 617.2 0C594.3 0 571.7 0 548.8 0C526 0 503 0 480 0C457 0 434 0 411.2 0C388.3 0 365.7 0 342.8 0C320 0 297 0 274.2 0C251.3 0 228.7 0 205.8 0C183 0 160 0 137.2 0C114.3 0 91.7 0 68.8 0C46 0 23 0 11.5 0L0 0Z" fill="#182CD4" stroke-linecap="round" stroke-linejoin="miter"></path></svg>