<svg id="visual" viewBox="0 0 900 600" width="900" height="600" xmlns="http://www.w3.org/2000/svg" xmlns:xlink="http://www.w3.org/1999/xlink" version="1.1"><rect x="0" y="0" width="900" height="600" fill="#c4fa6f"></rect><path d="M0 438L21.5 431.5C43 425 86 412 128.8 405.7C171.7 399.3 214.3 399.7 257.2 412.2C300 424.7 343 449.3 385.8 452.5C428.7 455.7 471.3 437.3 514.2 430.3C557 423.3 600 427.7 642.8 434C685.7 440.3 728.3 448.7 771.2 454.7C814 460.7 857 464.3 878.5 466.2L900 468L900 601L878.5 601C857 601 814 601 771.2 601C728.3 601 685.7 601 642.8 601C600 601 557 601 514.2 601C471.3 601 428.7 601 385.8 601C343 601 300 601 257.2 601C214.3 601 171.7 601 128.8 601C86 601 43 601 21.5 601L0 601Z" fill="#6369e7"></path><path d="M0 454L21.5 454.2C43 454.3 86 454.7 128.8 456.7C171.7 458.7 214.3 462.3 257.2 459.2C300 456 343 446 385.8 451.7C428.7 457.3 471.3 478.7 514.2 485.2C557 491.7 600 483.3 642.8 475.3C685.7 467.3 728.3 459.7 771.2 461.3C814 463 857 474 878.5 479.5L900 485L900 601L878.5 601C857 601 814 601 771.2 601C728.3 601 685.7 601 642.8 601C600 601 557 601 514.2 601C471.3 601 428.7 601 385.8 601C343 601 300 601 257.2 601C214.3 601 171.7 601 128.8 601C86 601 43 601 21.5 601L0 601Z" fill="#444cde"></path><path d="M0 503L21.5 504.2C43 505.3 86 507.7 128.8 508.3C171.7 509 214.3 508 257.2 510.7C300 513.3 343 519.7 385.8 514.3C428.7 509 471.3 492 514.2 484.2C557 476.3 600 477.7 642.8 480.8C685.7 484 728.3 489 771.2 491.3C814 493.7 857 493.3 878.5 493.2L900 493L900 601L878.5 601C857 601 814 601 771.2 601C728.3 601 685.7 601 642.8 601C600 601 557 601 514.2 601C471.3 601 428.7 601 385.8 601C343 601 300 601 257.2 601C214.3 601 171.7 601 128.8 601C86 601 43 601 21.5 601L0 601Z" fill="#182cd4"></path><path d="M0 551L21.5 547.7C43 544.3 86 537.7 128.8 532.7C171.7 527.7 214.3 524.3 257.2 520.3C300 516.3 343 511.7 385.8 514.7C428.7 517.7 471.3 528.3 514.2 535.2C557 542 600 545 642.8 541C685.7 537 728.3 526 771.2 526.2C814 526.3 857 537.7 878.5 543.3L900 549L900 601L878.5 601C857 601 814 601 771.2 601C728.3 601 685.7 601 642.8 601C600 601 557 601 514.2 601C471.3 601 428.7 601 385.8 601C343 601 300 601 257.2 601C214.3 601 171.7 601 128.8 601C86 601 43 601 21.5 601L0 601Z" fill="#0928b8"></path><path d="M0 575L21.5 572.3C43 569.7 86 564.3 128.8 560.3C171.7 556.3 214.3 553.7 257.2 554.2C300 554.7 343 558.3 385.8 562.8C428.7 567.3 471.3 572.7 514.2 571.7C557 570.7 600 563.3 642.8 559.2C685.7 555 728.3 554 771.2 555.7C814 557.3 857 561.7 878.5 563.8L900 566L900 601L878.5 601C857 601 814 601 771.2 601C728.3 601 685.7 601 642.8 601C600 601 557 601 514.2 601C471.3 601 428.7 601 385.8 601C343 601 300 601 257.2 601C214.3 601 171.7 601 128.8 601C86 601 43 601 21.5 601L0 601Z" fill="#00249d"></path></svg>